<svg width="24" height="23" viewBox="0 0 24 23" fill="none" xmlns="http://www.w3.org/2000/svg">
<path fill-rule="evenodd" clip-rule="evenodd" d="M12 0C13.84 0 15.3337 1.53029 15.3337 3.41714C15.3337 5.304 13.84 6.83429 12 6.83429C10.16 6.83429 8.66629 5.304 8.66629 3.41714C8.66629 1.53029 10.16 0 12 0ZM3.50857 12.6263C2.82629 13.016 2.832 13.6503 3.51771 14.0411C4.20343 14.4309 5.30857 14.4309 5.99086 14.0411C6.672 13.6503 6.66971 13.016 5.984 12.6263C5.29714 12.2354 4.19086 12.2354 3.50857 12.6263ZM22.3897 14.8526L15.4023 18.0903C14.2891 18.5897 13.3131 18.8331 11.9954 18.8331C10.8219 18.8362 9.66186 18.5826 8.59657 18.0903L1.60914 14.8526C1.01029 14.5623 0 14.0754 0 13.2846C0 12.4914 1.02857 11.9931 1.60914 11.7166L8.59657 8.49372C9.2951 8.17612 10.035 7.95873 10.7943 7.848V13.4823C10.7943 14.0194 11.3337 14.3771 12.0023 14.3771C12.6686 14.3771 13.2091 14.0263 13.2091 13.4834V7.83314C13.9726 7.94171 14.6583 8.15886 15.4023 8.49372L22.3897 11.7166C22.9703 11.9931 24 12.4914 24 13.2846C24 14.0754 22.9886 14.5623 22.3897 14.8526ZM15.824 21.8891C14.3874 22.5634 13.4126 22.8331 12.0046 22.8331C10.829 22.8412 9.66677 22.5838 8.60457 22.08C7.84 21.7269 2.32 19.1531 1.60914 18.8069C0.712 18.3703 0.388571 18.0811 0.196571 17.8103C0.0738762 17.6368 0.00546166 17.4307 0 17.2183V16.2263C0 16.2263 0 15.6366 0.56 15.9029C0.56 15.9029 7.68457 19.2366 8.59657 19.6606C9.55543 20.1063 10.6766 20.4149 11.9954 20.4149C13.3131 20.4149 14.2891 20.168 15.4011 19.6606C16.5154 19.152 23.44 15.9029 23.44 15.9029C24 15.6366 24 16.2263 24 16.2263V17.2183C23.9963 17.43 23.9276 17.6354 23.8034 17.8069C23.5634 18.1303 23.2926 18.36 22.3897 18.8046C21.6731 19.1589 17.2583 21.2114 15.824 21.8891Z" fill="white"/>
</svg>
