<svg width="16" height="17" viewBox="0 0 16 17" fill="none" xmlns="http://www.w3.org/2000/svg">
<path d="M4.19984 3.83333H14L12.6667 8.5H4.91781M13.3333 11.1667H5.33333L4 2.5H2M6 13.8333C6 14.2015 5.70152 14.5 5.33333 14.5C4.96514 14.5 4.66667 14.2015 4.66667 13.8333C4.66667 13.4651 4.96514 13.1667 5.33333 13.1667C5.70152 13.1667 6 13.4651 6 13.8333ZM13.3333 13.8333C13.3333 14.2015 13.0349 14.5 12.6667 14.5C12.2985 14.5 12 14.2015 12 13.8333C12 13.4651 12.2985 13.1667 12.6667 13.1667C13.0349 13.1667 13.3333 13.4651 13.3333 13.8333Z" stroke="white" stroke-width="1.5" stroke-linecap="round" stroke-linejoin="round"/>
</svg>
