<svg width="24" height="24" viewBox="0 0 24 24" fill="none" xmlns="http://www.w3.org/2000/svg">
<mask id="mask0_2743_2052" style="mask-type:alpha" maskUnits="userSpaceOnUse" x="0" y="0" width="24" height="24">
<rect width="24" height="24" fill="#D9D9D9"/>
</mask>
<g mask="url(#mask0_2743_2052)">
<path d="M6.92539 21.1999C6.30872 21.1999 5.77539 20.9792 5.32539 20.5379C4.87539 20.0959 4.65039 19.5582 4.65039 18.9249V6.0749H3.52539V3.7999H8.85039V2.6499H15.1254V3.7999H20.4754V6.0749H19.3504V18.9249C19.3504 19.5582 19.1254 20.0959 18.6754 20.5379C18.2254 20.9792 17.6921 21.1999 17.0754 21.1999H6.92539ZM17.0754 6.0749H6.92539V18.9249H17.0754V6.0749ZM8.90039 16.9999H11.0254V7.9999H8.90039V16.9999ZM12.9754 16.9999H15.1004V7.9999H12.9754V16.9999Z" fill="#EB8484"/>
</g>
</svg>
