<svg width="80" height="25" viewBox="0 0 80 25" fill="none" xmlns="http://www.w3.org/2000/svg">
<path d="M6.81885 11.586C6.82702 11.5872 6.83519 11.5907 6.84102 11.5977C8.88104 13.1487 12.3729 16.986 11.3073 18.0702C8.73632 20.318 4.9002 20.318 2.32918 18.0702C1.26482 16.986 4.75666 13.1511 6.79551 11.5977C6.80251 11.5919 6.81068 11.5872 6.81885 11.586ZM10.3714 7.11502C8.19014 5.78458 5.44755 5.78458 3.26632 7.11502C3.25465 7.12203 3.24882 7.13603 3.25465 7.14887C3.26165 7.16054 3.27566 7.16521 3.28733 7.16054C4.60727 6.87461 6.61344 8.01483 6.80367 8.13037C6.81184 8.13737 6.82468 8.13737 6.83285 8.13037C7.02308 8.01599 9.02809 6.87578 10.3492 7.16054C10.362 7.16521 10.376 7.16054 10.3819 7.14887C10.3877 7.13603 10.383 7.12086 10.3714 7.11502ZM2.04558 8.07318C2.03391 8.07902 2.02457 8.08719 2.01524 8.09652C-0.413409 10.5077 -0.679499 14.345 1.39436 17.0677C1.40253 17.0794 1.4177 17.0841 1.43054 17.0782C1.44104 17.07 1.44455 17.0549 1.43871 17.0432C0.91937 15.4362 3.57676 11.5394 4.94922 9.90547C4.95505 9.9008 4.95739 9.89379 4.95856 9.88562C4.95856 9.87629 4.95389 9.86812 4.94689 9.86345C2.86602 7.79425 2.15995 8.01716 2.04558 8.07318ZM8.69081 9.86345C8.6838 9.86929 8.67914 9.87745 8.67914 9.88562C8.6803 9.89263 8.68264 9.89963 8.68847 9.90547C10.0609 11.5394 12.7183 15.435 12.199 17.0432C12.1931 17.0549 12.1966 17.07 12.2071 17.0782C12.22 17.0841 12.2363 17.0794 12.2433 17.0677C14.316 14.345 14.0511 10.5077 11.6225 8.09652C11.6131 8.08719 11.6038 8.08018 11.5921 8.07318C11.4766 8.01716 10.7705 7.79425 8.69081 9.86345ZM30.034 8.93797H28.6171L25.4159 17.1354H26.716L27.5084 15.0114H31.1415L31.9339 17.1354H33.2329L30.034 8.93797ZM27.9087 13.9202L29.3267 10.1692L30.7447 13.9202H27.9087ZM24.7612 12.8184V17.1354H23.5836V16.064C23.2965 16.4643 22.9137 16.7865 22.4703 17.0012C21.9859 17.2218 21.4584 17.3315 20.9262 17.321C20.3812 17.3291 19.8397 17.2288 19.3344 17.0245C18.8617 16.825 18.4416 16.5204 18.1043 16.1341C17.746 15.7396 17.4729 15.2751 17.3014 14.7698C16.9442 13.6366 16.9442 12.4193 17.3049 11.2861C17.4776 10.7819 17.7542 10.3186 18.1171 9.92764C18.4649 9.54368 18.8932 9.24257 19.3729 9.04651C19.8899 8.84461 20.4407 8.74541 20.9963 8.75474C21.8937 8.72206 22.776 8.99866 23.4949 9.53784C24.1438 10.063 24.5651 10.8181 24.6702 11.6456V11.6596H23.3841V11.6502C23.286 11.1285 22.9943 10.6641 22.5671 10.3489C22.1143 10.0233 21.5669 9.85412 21.0079 9.86929C20.2633 9.84011 19.5468 10.1564 19.0659 10.7259C18.0903 12.1124 18.0903 13.9622 19.0659 15.3475C19.5573 15.9158 20.2808 16.2309 21.0313 16.2041C21.6918 16.2204 22.3337 15.9835 22.825 15.5412C23.3024 15.1222 23.5801 14.52 23.5895 13.8851H21.1795V12.8161L24.7612 12.8184ZM44.8089 10.0642V12.4392H48.8808V13.4848H44.8089V16.0092H49.4118V17.1354H43.5578V8.93914H49.4129V10.0654L44.8089 10.0642ZM42.3044 8.93797V17.1354H41.0988V10.6325C40.9436 11.0889 40.7359 11.6549 40.4791 12.3201L38.6282 17.1377H37.579L37.5755 17.1296L35.7047 12.3189C35.4818 11.7249 35.2775 11.1671 35.0966 10.6547V17.1366H33.8899V8.94031H35.6102L37.2896 13.2993C37.6257 14.1816 37.9046 14.9472 38.1182 15.5727C38.3667 14.8281 38.6492 14.0252 38.9561 13.1861L40.5771 8.94264L42.3044 8.93797ZM58.104 9.63588C57.5298 9.14221 56.7852 8.89246 56.029 8.93797H52.5395V17.1354H53.7917V14.1151H56.029C56.7852 14.1606 57.5287 13.9108 58.104 13.4172C59.089 12.3481 59.089 10.7037 58.104 9.63588ZM53.7917 10.042H56.0068C56.4305 10.0128 56.8483 10.1517 57.1692 10.4283C57.4493 10.7259 57.5929 11.125 57.5672 11.5335C57.594 11.9397 57.4493 12.3376 57.1692 12.6329C56.8459 12.9071 56.4293 13.0437 56.0068 13.0145H53.7917V10.042ZM72.7074 14.8643C72.7342 15.5669 72.418 16.2391 71.859 16.6662C71.1727 17.1389 70.3476 17.37 69.5155 17.3233C68.6134 17.377 67.7206 17.1167 66.9877 16.5857C66.3644 16.0477 66.026 15.2518 66.0704 14.4302V14.4185H67.3226V14.4302C67.2969 14.9483 67.5058 15.4513 67.8921 15.798C68.3718 16.1352 68.953 16.2963 69.5377 16.2543C70.0255 16.2846 70.5098 16.1632 70.9253 15.9065C71.2463 15.6742 71.4283 15.2961 71.4085 14.9005C71.4236 14.5772 71.2743 14.2679 71.0117 14.0777C70.5682 13.8163 70.0792 13.6389 69.5704 13.556L68.8701 13.4066C68.1722 13.3028 67.5128 13.0168 66.9597 12.578C66.5197 12.1684 66.2828 11.5849 66.3131 10.985C66.2944 10.3489 66.5874 9.74325 67.0985 9.36278C67.7182 8.93097 68.464 8.71856 69.2179 8.75824C70.0827 8.69639 70.9405 8.94031 71.6419 9.45031C72.1904 9.92881 72.4973 10.6255 72.4787 11.3538V11.3655H71.2381V11.3538C71.2381 10.9126 71.049 10.4913 70.7199 10.1972C70.2776 9.91364 69.7536 9.78293 69.2296 9.82611C68.8013 9.79926 68.3765 9.90196 68.0077 10.1225C67.7322 10.3116 67.5735 10.629 67.5887 10.9628C67.5689 11.2873 67.7077 11.6012 67.9633 11.8031C68.3858 12.0762 68.8608 12.2559 69.3591 12.3294L70.071 12.4788C70.8074 12.5897 71.503 12.8873 72.0912 13.3425C72.5078 13.7334 72.7331 14.2901 72.7074 14.8643ZM79.998 14.8643C80.0249 15.5669 79.7086 16.2391 79.1496 16.6662C78.4633 17.1389 77.6382 17.37 76.8061 17.3233C75.904 17.377 75.0112 17.1167 74.2783 16.5857C73.6551 16.0477 73.3166 15.2518 73.361 14.4302V14.4185H74.6132V14.4302C74.5875 14.9483 74.7964 15.4513 75.1827 15.798C75.6624 16.1352 76.2436 16.2963 76.8283 16.2543C77.3161 16.2846 77.8004 16.1632 78.2159 15.9065C78.5369 15.6742 78.7189 15.2961 78.6991 14.9005C78.7143 14.5772 78.5649 14.2679 78.3023 14.0777C77.8576 13.8163 77.3686 13.6401 76.861 13.5572L76.1607 13.4078C75.4628 13.3039 74.8034 13.018 74.2503 12.5792C73.8103 12.1696 73.5734 11.586 73.6037 10.9862C73.585 10.3501 73.878 9.74441 74.3891 9.36395C75.0089 8.93214 75.7546 8.71973 76.5085 8.75941C77.3733 8.69639 78.2311 8.94147 78.9325 9.45148C79.481 9.92997 79.7879 10.6267 79.7693 11.355V11.3666H78.5287V11.355C78.5287 10.9138 78.3396 10.4925 78.0105 10.1984C77.5682 9.9148 77.0442 9.78409 76.5202 9.82727C76.093 9.80043 75.6671 9.9043 75.2994 10.1237C75.024 10.3128 74.8653 10.6302 74.8805 10.964C74.8606 11.2884 74.9995 11.6024 75.2551 11.8043C75.6776 12.0774 76.1526 12.2571 76.6509 12.3306L77.3628 12.48C78.0992 12.5909 78.7948 12.8885 79.383 13.3436C79.7984 13.7346 80.0237 14.2901 79.998 14.8643ZM62.5867 8.94031H61.1699L57.9686 17.1377H59.2687L60.0612 15.0137H63.6942L64.4867 17.1377H65.7868L62.5867 8.94031ZM60.4615 13.9213L61.8783 10.1704L63.2963 13.9213H60.4615Z" fill="white"/>
</svg>
