<svg width="111" height="25" viewBox="0 0 111 25" fill="none" xmlns="http://www.w3.org/2000/svg">
<path fill-rule="evenodd" clip-rule="evenodd" d="M15.5995 8.17933C15.5995 8.10197 15.5195 8.04009 15.4395 8.05556L13.888 7.83894H11.6806C11.5527 6.86418 11.1688 5.22412 10.433 4.2803C10.0331 3.75424 9.55328 3.49121 9.04143 3.49121C8.72153 3.49121 8.40163 3.59952 8.1457 3.78519C7.88978 3.63046 7.56988 3.56857 7.26597 3.58405C5.79441 3.7233 5.34654 5.81206 5.25057 7.83894C3.97096 7.83894 2.67535 7.85442 1.39573 7.88536C1.29976 7.88536 1.21978 7.94725 1.21978 8.04008C1.18779 8.61256 1.04384 10.8406 0.851894 14.2754C0.643956 17.9114 0.53199 19.8919 0.5 20.418C0.5 20.4953 0.56398 20.5572 0.643956 20.5727L12.9603 22.383C13.0082 22.383 13.0562 22.383 13.1042 22.352L16.1273 20.4799C16.2233 20.4334 16.2713 20.3406 16.2553 20.2323L15.5995 8.17933ZM9.04143 4.04822C9.34534 4.06369 9.63325 4.20294 9.8092 4.43503C10.561 5.22412 10.9289 6.89513 11.0888 7.83894H10.1611C9.95316 6.58568 9.42532 4.99203 8.62556 4.15652C8.75352 4.07916 8.91347 4.04822 9.04143 4.04822ZM8.19369 4.52786C8.89748 5.22411 9.37733 6.67851 9.56927 7.83894H7.31395C7.37793 6.77135 7.60186 5.286 8.19369 4.52786ZM5.53849 15.7763L3.85899 16.3642C3.57108 16.4725 3.52309 16.6118 3.76302 16.6891C4.08292 16.7665 4.41882 16.751 4.73873 16.6427L5.53849 16.3642V17.1842L5.37853 17.2152C4.54678 17.3544 3.68304 17.2771 2.86729 17.014C2.08352 16.7974 1.93957 16.3487 2.30746 16.0857C2.57937 15.9155 2.88328 15.7763 3.20319 15.668L5.53849 14.8634V15.7763ZM7.34594 4.14105C7.4739 4.12558 7.61786 4.14105 7.72983 4.20294C6.99405 5.1777 6.78611 6.87966 6.72213 7.83894H5.84239C5.95436 5.54903 6.4822 4.21841 7.34594 4.14105ZM7.4899 12.2795V18.1126L5.85839 17.6175V10.6549C6.61016 10.8096 7.36194 11.0108 8.09772 11.2429C9.4733 11.707 9.93716 12.264 9.93716 13.5482C9.93716 14.8015 9.1374 15.2811 8.12971 14.8015V12.4806C8.12971 12.2021 8.08172 11.9546 7.8098 11.8772C7.61786 11.8308 7.4899 12.001 7.4899 12.2795ZM12.0165 16.3642C11.8246 16.5963 11.3447 16.7665 11.3447 16.7665L7.79381 18.0043V17.0914L10.417 16.194C10.7049 16.0857 10.7529 15.9465 10.513 15.8691C10.1931 15.7917 9.85719 15.8072 9.53728 15.9155L7.79381 16.5035V15.5596L7.88978 15.5287C8.28966 15.4049 8.68954 15.3276 9.10541 15.2811C9.87318 15.2038 10.641 15.2966 11.3607 15.5442C12.1285 15.7763 12.2085 16.1321 12.0165 16.3642Z" fill="white"/>
<path fill-rule="evenodd" clip-rule="evenodd" d="M83.5161 16.3813L83.1962 15.4684V16.3813H83.0362V15.2518H83.2442L83.5801 16.2111L83.916 15.2518H84.1239V16.3813H83.964V15.4684L83.6441 16.3813H83.5161ZM82.3644 15.3756H81.9806V15.2518H82.9083V15.3756H82.5084V16.3813H82.3484L82.3644 15.3756ZM105.893 13.5498C105.973 14.8805 106.821 15.7314 108.181 15.7314C108.773 15.7314 109.364 15.6231 109.924 15.422L110.1 16.1801C109.476 16.4122 108.821 16.5205 108.165 16.505C106.021 16.505 104.886 15.1125 104.886 13.2713C104.886 11.3837 106.005 10.0067 107.813 10.0067C109.62 10.0067 110.5 11.2135 110.5 13.0392V13.5189L105.893 13.5498ZM105.893 12.7607H109.54V12.7143C109.54 11.523 108.836 10.8267 107.813 10.8267C106.661 10.8267 106.005 11.6158 105.893 12.7607ZM104.902 10.8576C104.726 10.8267 104.55 10.8267 104.358 10.8267C103.494 10.8267 102.806 11.3063 102.806 12.7607V16.3967H101.767V10.1923H102.774V11.0278H102.79C103.11 10.3625 103.654 10.0531 104.486 10.0531C104.646 10.0531 104.806 10.0531 104.95 10.084L104.902 10.8576ZM97.9118 16.536C96.0563 16.536 94.9047 15.2982 94.9047 13.2713C94.9047 11.2444 96.0563 10.0376 97.9118 10.0376C99.7672 10.0376 100.919 11.2444 100.919 13.2713C100.919 15.2982 99.7512 16.536 97.9118 16.536ZM97.9118 10.8267C96.5682 10.8267 95.9444 11.8324 95.9444 13.2713C95.9444 14.7103 96.5842 15.7469 97.9118 15.7469C99.2554 15.7469 99.8792 14.7257 99.8792 13.2713C99.8792 11.8169 99.2554 10.8267 97.9118 10.8267ZM90.8419 10.1769H91.9936V8.61415H93.0332V10.1769H94.5368V10.9659H93.0332V14.6793C93.0332 15.5303 93.1132 15.685 93.849 15.685C94.0729 15.685 94.3129 15.6695 94.5368 15.6386V16.3967C94.2169 16.4432 93.881 16.4741 93.5611 16.4741C92.2175 16.4741 91.9936 15.8552 91.9936 14.7412V10.9659H90.8419V10.1769ZM89.8822 9.06285C89.2744 8.83076 88.6186 8.70698 87.9628 8.70698C87.131 8.70698 86.2033 9.01643 86.2033 9.99119C86.2033 10.7493 86.6672 11.1516 88.0267 11.6622C89.6743 12.2811 90.538 12.9 90.538 14.2151C90.538 15.8707 89.0344 16.536 87.5949 16.536C86.6991 16.536 85.8194 16.3503 85.0037 16.0099L85.2756 15.128C86.0114 15.4684 86.8111 15.6541 87.6269 15.6695C88.6825 15.6695 89.4823 15.2208 89.4823 14.277C89.4823 13.426 88.7145 12.9774 87.3869 12.4668C85.8834 11.8943 85.1476 11.1671 85.1476 10.0531C85.1476 8.50584 86.6672 7.84053 87.9948 7.84053C88.7305 7.82506 89.4663 7.94883 90.1701 8.19639L89.8822 9.06285ZM38.8415 9.99119H40.4251C40.441 9.99119 40.457 10.0067 40.457 10.0221L41.9286 14.1378C41.9286 14.1532 41.9446 14.1532 41.9446 14.1378L43.6081 10.0067C43.6081 9.99119 43.6241 9.97571 43.6401 9.99119H45.0637C45.0797 9.99119 45.0797 10.0067 45.0797 10.0067L41.1448 19.4603C41.1448 19.4757 41.1288 19.4912 41.1129 19.4912H39.8012C39.7852 19.4912 39.7852 19.4912 39.7852 19.4757C39.7852 19.4757 39.7852 19.4757 39.7852 19.4603L41.0329 16.3503C41.0329 16.3349 41.0329 16.3194 41.0329 16.3039L38.7935 10.0221C38.8095 10.0067 38.8095 10.0067 38.8415 9.99119C38.8255 9.99119 38.8255 9.99119 38.8415 9.99119ZM72.0475 9.99119C74.5748 9.99119 74.8947 11.6931 74.8947 13.194C74.8947 14.6948 74.5748 16.3967 72.0475 16.3967C69.5203 16.3967 69.2164 14.6793 69.2164 13.194C69.2164 11.7086 69.5203 9.99119 72.0475 9.99119ZM73.0073 15.0506C73.2312 14.7103 73.3272 14.1223 73.3272 13.194C73.3272 12.0954 73.1832 11.4611 72.8633 11.1671C72.6714 10.9969 72.4314 10.9195 72.0475 10.9195C71.6637 10.9195 71.4237 10.9969 71.2318 11.1671C70.9119 11.4611 70.7679 12.0954 70.7679 13.194C70.7679 14.1223 70.8639 14.7103 71.0878 15.0506C71.3278 15.422 71.7116 15.4684 72.0475 15.4684C72.3834 15.4684 72.7673 15.422 73.0073 15.0506ZM78.6056 9.99119C81.0049 9.99119 81.3248 11.6931 81.3248 13.1785V16.3503C81.3248 16.3658 81.3088 16.3813 81.2928 16.3813H79.7892C79.7732 16.3813 79.7572 16.3658 79.7572 16.3503C79.7572 16.3503 79.7572 13.0392 79.7572 13.0083C79.7572 12.1418 79.6613 11.6003 79.4693 11.2909C79.2454 10.9505 78.9095 10.9041 78.6056 10.9041H77.4539C77.4539 10.9041 77.4379 10.9041 77.4379 10.9195V16.3658C77.4379 16.3813 77.4219 16.3967 77.4059 16.3967H75.9024C75.8864 16.3967 75.8704 16.3813 75.8704 16.3658V10.0221C75.8704 10.0067 75.8704 10.0067 75.8864 9.99119H78.6056ZM68.1767 7.97978C68.1927 7.97978 68.2087 7.99525 68.2087 8.01072V9.21757C68.2087 9.23304 68.2087 9.23304 68.1927 9.24851H66.6892C66.6732 9.24851 66.6732 9.24851 66.6572 9.23304V8.0262C66.6572 8.01072 66.6732 7.99525 66.6892 7.99525H68.1767V7.97978ZM68.1767 9.99119C68.1927 9.99119 68.2087 10.0067 68.2087 10.0067V16.3503C68.2087 16.3658 68.1927 16.3813 68.1767 16.3813H66.6732C66.6572 16.3813 66.6412 16.3658 66.6412 16.3503V10.0067C66.6412 9.99119 66.6572 9.97571 66.6732 9.97571H68.1767V9.99119ZM65.6815 9.99119C65.6975 9.99119 65.6975 9.99119 65.7135 10.0067V10.8731C65.7135 10.8886 65.6975 10.9041 65.6815 10.9041C65.6815 10.9041 64.5458 10.9041 64.05 10.9041C64.05 10.9041 64.034 10.9041 64.034 10.9195V14.6484C64.034 15.4684 64.4338 15.4684 64.5938 15.4684H65.2656C65.2816 15.4684 65.2976 15.4839 65.2976 15.4993V16.3658C65.2976 16.3813 65.2816 16.3967 65.2656 16.3967H64.1779C63.1862 16.3967 62.4664 15.5922 62.4664 14.4782V8.93906C62.4664 8.92359 62.4824 8.90812 62.4984 8.90812H64.002C64.018 8.90812 64.034 8.92359 64.034 8.93906V9.99119C64.034 9.99119 64.034 10.0067 64.05 10.0067L65.6815 9.99119ZM55.1406 9.99119C55.1566 9.99119 55.1726 9.99118 55.1726 10.0221V10.8886C55.1726 10.9041 55.1566 10.9195 55.1406 10.9195C55.1406 10.9195 54.005 10.9195 53.5091 10.9195C53.5091 10.9195 53.4931 10.9195 53.4931 10.935V14.6638C53.4931 15.4839 53.893 15.4839 54.053 15.4839H54.7088C54.7248 15.4839 54.7408 15.4993 54.7408 15.5148V16.3813C54.7408 16.3967 54.7248 16.4122 54.7088 16.4122H53.6211C52.6294 16.4122 51.9096 15.6077 51.9096 14.4936V8.95454C51.9096 8.93906 51.9256 8.9236 51.9416 8.9236H53.4451C53.4611 8.9236 53.4771 8.93906 53.4771 8.95454V10.0221L55.1406 9.99119ZM61.2028 10.0221V16.3658C61.2028 16.3813 61.1868 16.3967 61.1708 16.3967H59.6673C59.6513 16.3967 59.6353 16.3813 59.6353 16.3813V10.935C59.6353 10.935 59.6353 10.9195 59.6193 10.9195H58.4676C58.1637 10.9195 57.8278 10.9659 57.6039 11.3373C57.4119 11.6777 57.316 12.2656 57.316 13.194V14.5865C57.316 15.3756 57.6359 15.4839 57.8758 15.4839H58.9155C58.9315 15.4839 58.9475 15.4993 58.9475 15.4993V16.3658C58.9475 16.3813 58.9315 16.3967 58.9155 16.3967H57.4439C56.4522 16.3967 55.7325 15.5922 55.7325 14.4782V13.1785C55.7325 11.6931 56.0364 9.99119 58.4516 9.99119H61.1388C61.2028 9.99119 61.2188 10.0067 61.2028 10.0221ZM48.8385 11.492C49.4783 11.5384 49.9582 11.7396 50.2621 12.1264C50.63 12.5596 50.8219 13.1785 50.8219 13.9521C50.8219 16.0873 49.4463 16.4122 48.6306 16.4122H45.9914C45.9754 16.4122 45.9594 16.3967 45.9594 16.3967V15.5303C45.9594 15.5148 45.9754 15.4993 45.9914 15.4993H48.1187C49.1424 15.4993 49.2704 14.6638 49.2704 14.1997V13.9985C49.2704 13.2559 48.9185 12.7762 48.3587 12.7453L47.6229 12.6834C46.4392 12.606 45.6395 11.6931 45.6395 10.4554V10.3625C45.6395 8.78434 46.6472 7.99525 48.0388 7.99525H50.3101C50.3261 7.99525 50.3421 8.01072 50.3421 8.0262V8.89265C50.3421 8.90812 50.3261 8.9236 50.3261 8.9236H48.2787C47.6389 8.9236 47.159 9.2021 47.159 10.2233C47.159 11.1052 47.5749 11.3992 48.1347 11.4456L48.8385 11.492ZM37.9938 10.0221V16.3658C37.9938 16.3813 37.9938 16.3813 37.9778 16.3967H36.4742C36.4583 16.3967 36.4423 16.3967 36.4423 16.3813V10.935C36.4423 10.935 36.4423 10.9195 36.4263 10.9195H35.2746C34.9707 10.9195 34.6188 10.9659 34.4109 11.3373C34.2189 11.6777 34.123 12.2656 34.123 13.194V14.5865C34.123 15.3756 34.4429 15.4839 34.6828 15.4839H35.7385C35.7545 15.4839 35.7705 15.4993 35.7705 15.5148V16.3813C35.7705 16.3967 35.7545 16.4122 35.7385 16.4122H34.2829C33.2912 16.4122 32.5714 15.6077 32.5714 14.4936V13.194C32.5714 11.7086 32.8753 10.0067 35.2906 10.0067H37.9778C37.9778 9.99119 37.9938 10.0067 37.9938 10.0221ZM31.4038 7.99525C31.4198 7.99525 31.4358 8.01072 31.4358 8.0262V16.3658C31.4358 16.3813 31.4198 16.3967 31.4198 16.3967H29.9162C29.9002 16.3967 29.8842 16.3813 29.8842 16.3813V8.0262C29.8842 8.01072 29.9002 7.99525 29.9162 7.99525H31.4038ZM26.8611 7.99525C28.1248 7.99525 28.9405 9.0319 28.9405 10.6256C28.9405 11.4456 28.7006 12.1418 28.2687 12.606C27.9168 13.0083 27.405 13.2249 26.8611 13.2404H25.3896C25.3736 13.2404 25.3576 13.2404 25.3576 13.2249V12.3585C25.3576 12.343 25.3736 12.3275 25.3896 12.3275H26.4293C27.0531 12.3275 27.405 11.7241 27.405 10.6256C27.405 9.52702 27.0531 8.9236 26.4293 8.9236H24.7018C24.7018 8.9236 24.6858 8.92359 24.6858 8.93906V16.3813C24.6858 16.3967 24.6698 16.4122 24.6538 16.4122H23.1343C23.1183 16.4122 23.1023 16.3967 23.1023 16.3813V8.04167C23.1023 8.0262 23.1183 8.01072 23.1343 8.01072L26.8611 7.99525Z" fill="white"/>
</svg>
