<svg width="25" height="29" viewBox="0 0 25 29" fill="none" xmlns="http://www.w3.org/2000/svg">
<path fill-rule="evenodd" clip-rule="evenodd" d="M23.8364 7.14005C23.8364 7.02222 23.7146 6.92797 23.5928 6.95153L21.2298 6.62163H17.868C17.6732 5.13706 17.0885 2.63923 15.9679 1.20179C15.3589 0.400598 14.6281 0 13.8485 0C13.3613 0 12.8741 0.164954 12.4843 0.447728C12.0945 0.212083 11.6073 0.117824 11.1445 0.141388C8.90327 0.353469 8.22116 3.53467 8.075 6.62163C6.12614 6.62163 4.15291 6.64519 2.20405 6.69232C2.05788 6.69232 1.93608 6.78658 1.93608 6.92797C1.88736 7.79985 1.66811 11.1931 1.37578 16.4245C1.05909 21.9621 0.888565 24.9784 0.839844 25.7796C0.839844 25.8974 0.937285 25.9917 1.05909 26.0152L19.8169 28.7723C19.89 28.7723 19.9631 28.7723 20.0362 28.7251L24.6403 25.8738C24.7865 25.8031 24.8596 25.6617 24.8352 25.4968L23.8364 7.14005ZM13.8485 0.848324C14.3114 0.871888 14.7499 1.08397 15.0178 1.43744C16.1628 2.63923 16.7231 5.18419 16.9667 6.62163H15.5538C15.2371 4.7129 14.4332 2.28576 13.2151 1.01327C13.41 0.895452 13.6536 0.848324 13.8485 0.848324ZM12.5574 1.57882C13.6293 2.63922 14.3601 4.85429 14.6524 6.62163H11.2175C11.315 4.99567 11.656 2.73348 12.5574 1.57882ZM8.51349 18.7102L5.95561 19.6057C5.51712 19.7706 5.44403 19.9827 5.80944 20.1005C6.29666 20.2183 6.80824 20.1948 7.29545 20.0298L8.51349 19.6057V20.8546L8.26989 20.9017C7.00312 21.1138 5.68764 20.996 4.44524 20.5954C3.25156 20.2655 3.03231 19.5821 3.59261 19.1815C4.00675 18.9223 4.4696 18.7102 4.95682 18.5453L8.51349 17.3199V18.7102ZM11.2663 0.989709C11.4612 0.966144 11.6804 0.989711 11.8509 1.08397C10.7303 2.56853 10.4136 5.16063 10.3162 6.62163H8.97635C9.14687 3.13408 9.95078 1.10753 11.2663 0.989709ZM11.4855 13.3846V22.2685L9.00071 21.5144V10.9104C10.1457 11.146 11.2906 11.4523 12.4112 11.8058C14.5062 12.5128 15.2127 13.3611 15.2127 15.3169C15.2127 17.2257 13.9947 17.9562 12.4599 17.2257V13.691C12.4599 13.2668 12.3869 12.8898 11.9727 12.772C11.6804 12.7013 11.4855 12.9605 11.4855 13.3846ZM18.3796 19.6057C18.0873 19.9591 17.3565 20.2183 17.3565 20.2183L11.9484 22.1035V20.7132L15.9435 19.3465C16.382 19.1815 16.4551 18.9694 16.0897 18.8516C15.6025 18.7338 15.0909 18.7573 14.6037 18.9223L11.9484 19.8177V18.3803L12.0945 18.3332C12.7036 18.1447 13.3126 18.0268 13.946 17.9562C15.1153 17.8383 16.2846 17.9797 17.3808 18.3568C18.5501 18.7102 18.6719 19.2522 18.3796 19.6057Z" fill="white"/>
</svg>
