<svg width="24" height="25" viewBox="0 0 24 25" fill="none" xmlns="http://www.w3.org/2000/svg">
<path d="M11.9828 0C5.67335 0 0.498567 4.86532 0 11.0544L6.44699 13.7192C6.99713 13.341 7.65043 13.1347 8.3553 13.1347C8.42407 13.1347 8.47564 13.1347 8.54441 13.1347L11.4155 8.9742C11.4155 8.95701 11.4155 8.93982 11.4155 8.92263C11.4155 6.42979 13.4441 4.38395 15.9542 4.38395C18.447 4.38395 20.4928 6.4126 20.4928 8.92263C20.4928 11.4155 18.4642 13.4613 15.9542 13.4613C15.9198 13.4613 15.8854 13.4613 15.851 13.4613L11.7593 16.3839C11.7593 16.4355 11.7593 16.4871 11.7593 16.5387C11.7593 18.4126 10.2292 19.9427 8.3553 19.9427C6.70487 19.9427 5.32951 18.7736 5.02006 17.2092L0.412608 15.3008C1.83954 20.3553 6.48137 24.0515 11.9828 24.0515C18.6189 24.0515 24 18.6705 24 12.0344C24 5.38108 18.6189 0 11.9828 0Z" fill="white"/>
<path d="M7.53005 18.2407L6.05154 17.6389C6.30942 18.1891 6.7736 18.6361 7.37532 18.894C8.68191 19.4269 10.1776 18.8252 10.7106 17.5186C10.9684 16.8825 10.9684 16.1948 10.7106 15.5587C10.4527 14.9226 9.95412 14.4412 9.33521 14.1662C8.7163 13.9083 8.04581 13.9083 7.46128 14.1318L8.99137 14.7679C9.95412 15.1633 10.4011 16.2636 10.0057 17.2263C9.59309 18.1891 8.4928 18.6533 7.53005 18.2407Z" fill="white"/>
<path d="M18.9626 8.92262C18.9626 7.255 17.6045 5.89683 15.9369 5.89683C14.2692 5.89683 12.9111 7.255 12.9111 8.92262C12.9111 10.5902 14.2692 11.9484 15.9369 11.9484C17.6045 11.9484 18.9626 10.5902 18.9626 8.92262ZM13.6847 8.92262C13.6847 7.66761 14.699 6.65328 15.954 6.65328C17.2091 6.65328 18.2234 7.66761 18.2234 8.92262C18.2234 10.1776 17.2091 11.192 15.954 11.192C14.699 11.192 13.6847 10.1776 13.6847 8.92262Z" fill="white"/>
</svg>
