<svg width="80" height="25" viewBox="0 0 80 25" fill="none" xmlns="http://www.w3.org/2000/svg">
<path d="M12.0198 0.874023C5.69088 0.874023 0.500108 5.75438 0 11.9626L6.46691 14.6356C7.01875 14.2562 7.67407 14.0493 8.38112 14.0493C8.4501 14.0493 8.50183 14.0493 8.57081 14.0493L11.4507 9.87595C11.4507 9.85871 11.4507 9.84146 11.4507 9.82422C11.4507 7.32368 13.4857 5.27152 16.0035 5.27152C18.504 5.27152 20.5562 7.30644 20.5562 9.82422C20.5562 12.3248 18.5212 14.3769 16.0035 14.3769C15.969 14.3769 15.9345 14.3769 15.9 14.3769L11.7956 17.3086C11.7956 17.3603 11.7956 17.4121 11.7956 17.4638C11.7956 19.3435 10.2608 20.8783 8.38112 20.8783C6.72559 20.8783 5.34598 19.7057 5.03557 18.1364L0.413883 16.2221C1.84523 21.2922 6.5014 24.9999 12.0198 24.9999C18.6764 24.9999 24.0742 19.6022 24.0742 12.9456C24.0742 6.27173 18.6764 0.874023 12.0198 0.874023Z" fill="white"/>
<path d="M7.55332 19.171L6.07024 18.5675C6.32892 19.1193 6.79453 19.5677 7.39811 19.8264C8.70874 20.361 10.2091 19.7574 10.7437 18.4468C11.0023 17.8087 11.0023 17.1189 10.7437 16.4808C10.485 15.8427 9.98488 15.3599 9.36405 15.084C8.74323 14.8253 8.07067 14.8253 7.48434 15.0495L9.01915 15.6875C9.98488 16.0842 10.4332 17.1879 10.0366 18.1536C9.62273 19.1193 8.51904 19.5849 7.55332 19.171Z" fill="white"/>
<path d="M19.0212 9.82421C19.0212 8.15144 17.6589 6.78908 15.9861 6.78908C14.3133 6.78908 12.951 8.15144 12.951 9.82421C12.951 11.497 14.3133 12.8593 15.9861 12.8593C17.6589 12.8593 19.0212 11.497 19.0212 9.82421ZM13.727 9.82421C13.727 8.56532 14.7445 7.54786 16.0033 7.54786C17.2622 7.54786 18.2797 8.56532 18.2797 9.82421C18.2797 11.0831 17.2622 12.1006 16.0033 12.1006C14.7445 12.1006 13.727 11.0831 13.727 9.82421Z" fill="white"/>
<path d="M36.9561 9.13441L36.1456 10.5485C35.5248 10.1174 34.6798 9.85871 33.9382 9.85871C33.0932 9.85871 32.5759 10.2036 32.5759 10.8244C32.5759 11.5832 33.5071 11.7557 34.8695 12.2558C36.3526 12.7731 37.1976 13.3939 37.1976 14.7391C37.1976 16.5843 35.749 17.6362 33.6451 17.6362C32.6276 17.6362 31.386 17.3776 30.4547 16.7912L31.0411 15.2219C31.8171 15.6358 32.7311 15.86 33.5416 15.86C34.6453 15.86 35.1799 15.4461 35.1799 14.8425C35.1799 14.1527 34.3866 13.9458 33.0932 13.5147C31.6274 13.0146 30.5927 12.3765 30.5927 10.8762C30.5927 9.18615 31.9378 8.22042 33.8865 8.22042C35.2489 8.23767 36.3526 8.66879 36.9561 9.13441Z" fill="white"/>
<path d="M43.268 10.0312V17.481H41.371V10.0312H38.6118V8.39287H46.0272V10.0312H43.268Z" fill="white"/>
<path d="M50.0279 10.0312V12.0661H53.6666V13.7044H50.0279V15.8427H54.253V17.481H48.131V8.39287H54.253V10.0312H50.0279Z" fill="white"/>
<path d="M58.4953 15.722L57.8917 17.481H55.8913L59.3058 8.39287H61.22L64.7207 17.481H62.6513L62.0305 15.722H58.4953ZM60.2543 10.5657L59.0126 14.2045H61.5304L60.2543 10.5657Z" fill="white"/>
<path d="M74.4987 11.9109L72.0154 17.2224H70.929L68.4974 11.9626V17.481H66.6694V8.39287H68.4802L71.5326 14.9632L74.4815 8.39287H76.3267V17.481H74.4987V11.9109Z" fill="white"/>
<path d="M80 9.54829C80 10.3243 79.4136 10.8072 78.7411 10.8072C78.0685 10.8072 77.4822 10.3243 77.4822 9.54829C77.4822 8.77226 78.0685 8.2894 78.7411 8.2894C79.4136 8.27215 80 8.75501 80 9.54829ZM77.6891 9.54829C77.6891 10.2036 78.1547 10.6175 78.7411 10.6175C79.3102 10.6175 79.793 10.2036 79.793 9.54829C79.793 8.89297 79.3274 8.49634 78.7411 8.49634C78.172 8.47909 77.6891 8.89297 77.6891 9.54829ZM78.7583 8.89298C79.086 8.89298 79.1895 9.06543 79.1895 9.25512C79.1895 9.42758 79.086 9.54829 78.9653 9.60003L79.2584 10.1519H79.017L78.7756 9.66901H78.5169V10.1519H78.3099V8.91022H78.7583V8.89298ZM78.5169 9.47931H78.7411C78.879 9.47931 78.9653 9.39308 78.9653 9.27237C78.9653 9.15165 78.8963 9.08267 78.7411 9.08267H78.5169V9.47931Z" fill="white"/>
</svg>
