<svg width="25" height="24" viewBox="0 0 25 24" fill="none" xmlns="http://www.w3.org/2000/svg">
<path d="M12.3637 9.62456C12.3781 9.62662 12.3925 9.63278 12.4027 9.6451C15.9929 12.3747 22.1382 19.1279 20.263 21.036C15.7382 24.9918 8.9871 24.9918 4.46237 21.036C2.58922 19.1279 8.73447 12.3788 12.3226 9.6451C12.3349 9.63483 12.3493 9.62662 12.3637 9.62456ZM18.6158 1.75608C14.777 -0.585361 9.95038 -0.585361 6.11165 1.75608C6.09111 1.76841 6.08084 1.79305 6.09111 1.81565C6.10344 1.83619 6.12808 1.8444 6.14862 1.83618C8.47157 1.33298 12.0022 3.33964 12.337 3.54297C12.3514 3.5553 12.374 3.5553 12.3883 3.54297C12.7231 3.34169 16.2517 1.33503 18.5767 1.83618C18.5993 1.8444 18.624 1.83619 18.6342 1.81565C18.6445 1.79305 18.6363 1.76635 18.6158 1.75608ZM3.96328 3.44233C3.94274 3.4526 3.92631 3.46698 3.90988 3.48341C-0.364274 7.72676 -0.832562 14.48 2.81721 19.2717C2.83158 19.2923 2.85828 19.3005 2.88088 19.2902C2.89936 19.2758 2.90552 19.2491 2.89525 19.2286C1.98127 16.4004 6.65799 9.54241 9.07336 6.66695C9.08363 6.65874 9.08774 6.64641 9.08979 6.63203C9.08979 6.6156 9.08158 6.60122 9.06926 6.59301C5.40717 2.95145 4.16456 3.34375 3.96328 3.44233ZM15.6581 6.59301C15.6458 6.60328 15.6376 6.61766 15.6376 6.63203C15.6397 6.64436 15.6438 6.65668 15.654 6.66695C18.0694 9.54241 22.7461 16.3983 21.8321 19.2286C21.8219 19.2491 21.828 19.2758 21.8465 19.2902C21.8691 19.3005 21.8979 19.2923 21.9102 19.2717C25.5579 14.48 25.0917 7.72676 20.8175 3.48341C20.8011 3.46698 20.7847 3.45466 20.7641 3.44233C20.5608 3.34375 19.3182 2.95145 15.6581 6.59301Z" fill="white"/>
</svg>
